<?xml version="1.0" encoding="iso-8859-1"?>
<!-- Uploaded to: SVG Repo, www.svgrepo.com, Generator: SVG Repo Mixer Tools -->
<!DOCTYPE svg PUBLIC "-//W3C//DTD SVG 1.1//EN" "http://www.w3.org/Graphics/SVG/1.1/DTD/svg11.dtd">
<svg fill="#000000" height="800px" width="800px" version="1.1" id="Capa_1" xmlns="http://www.w3.org/2000/svg" xmlns:xlink="http://www.w3.org/1999/xlink" 
	 viewBox="0 0 297 297" xml:space="preserve">
<path d="M294.135,251.898l-58.202-58.203l41.522-23.987c3.245-1.872,5.136-5.435,4.864-9.172c-0.267-3.739-2.65-6.99-6.131-8.38
	l-98.11-39.133c1.892-7.346,2.866-14.895,2.865-22.553c0-49.885-40.585-90.469-90.47-90.469C40.587,0.004,0,40.588,0,90.471
	c0,49.884,40.586,90.466,90.473,90.466c7.662,0,15.216-0.974,22.563-2.867l39.128,98.112c1.39,3.48,4.645,5.863,8.382,6.133
	c3.743,0.27,7.302-1.619,9.173-4.863l23.983-41.523l58.2,58.205c1.835,1.835,4.322,2.865,6.916,2.865
	c2.594,0,5.085-1.03,6.917-2.865l28.4-28.404C297.955,261.908,297.955,255.716,294.135,251.898z M90.473,161.378
	c-39.102,0-70.911-31.809-70.911-70.907s31.81-70.907,70.912-70.907c39.1,0,70.908,31.808,70.908,70.907
	c0.001,5.159-0.56,10.25-1.653,15.231l-18.58-7.41c0.356-2.499,0.535-5.024,0.516-7.569c-0.224-28.14-23.302-51.216-51.446-51.444
	c-0.139,0-0.271,0-0.411,0c-13.548,0-26.234,5.233-35.767,14.763c-9.627,9.627-14.87,22.473-14.763,36.178
	c0.227,28.142,23.303,51.217,51.448,51.445c0.133,0,0.264,0,0.396,0c2.413,0,4.813-0.183,7.186-0.521l7.409,18.577
	C100.732,160.817,95.635,161.378,90.473,161.378z M91.02,78.297c-3.631-1.448-7.773-0.595-10.54,2.168
	c-2.765,2.765-3.618,6.908-2.171,10.539l12.401,31.093c-17.45-0.23-31.732-14.564-31.872-32.034
	c-0.066-8.417,3.142-16.298,9.034-22.19c5.833-5.832,13.616-9.034,21.937-9.034c0.086,0,0.169,0,0.252,0.002
	c17.467,0.141,31.797,14.41,32.035,31.854L91.02,78.297z M258.817,273.387l-60.296-60.3c-1.846-1.848-4.339-2.866-6.916-2.866
	c-0.424,0-0.851,0.027-1.276,0.083c-3.014,0.397-5.673,2.173-7.194,4.807l-20.27,35.096l-57.954-145.308l145.304,57.958
	l-35.104,20.273c-2.631,1.521-4.406,4.182-4.806,7.193c-0.395,3.015,0.632,6.043,2.782,8.192l60.3,60.299L258.817,273.387z"/>
</svg>